<svg width="146" height="317" viewBox="0 0 146 317" fill="none" xmlns="http://www.w3.org/2000/svg">
<path d="M78.474 8.4232C90.7191 1.1869 117.982 -6.88624 129.073 18.7115C140.163 44.3093 102.958 71.2442 82.9686 81.512C74.3199 83.2437 56.8809 85.1976 56.3155 79.1593C55.6087 71.6115 58.6844 57.4111 87.8121 54.8255C106.312 53.7415 143.531 58.9454 144.412 88.4327C145.029 101.296 136.445 127.552 97.1708 129.674L47.8445 132.972M47.8445 132.972C31.3961 127.755 10.8868 111.591 60.4369 88.672C74.0111 87.2641 106.07 86.0795 125.713 92.6041C136.004 99.0018 153.215 118.453 139.731 145.075C138.114 150.81 125.51 161.951 88.0288 160.639C79.7053 159.572 61.1876 156.906 53.7049 154.781L26.1611 149.19L47.8445 132.972ZM47.8445 132.972C59.5721 133.813 86.5318 137.784 100.55 146.94C118.072 158.385 127.068 157.265 133.169 187.912C131.137 201.761 119.666 227.507 90.0352 219.702C60.4044 211.896 43.6694 200.25 39.0058 195.402L47.6386 171.546M47.6386 171.546C67.8133 181.034 113.116 195.823 132.929 179.074C144.25 166.156 155.818 135.583 111.516 116.635C100.416 113.105 76.5713 106.032 69.9879 105.983L54.6382 152.202C75.2183 161.837 116.654 187.186 117.756 211.503C117.984 225.44 110.192 251.789 77.1958 245.682C65.4883 241.932 39.9198 230.881 31.3063 216.68M47.6386 171.546L31.3063 216.68M47.6386 171.546C59.6454 179.536 85.4474 198.936 92.6017 212.609C101.684 228.049 111.05 261.579 75.8589 272.179C65.9776 272.25 41.8998 266.454 24.6387 242.706M31.3063 216.68L24.6387 242.706M31.3063 216.68C42.1651 232.277 62.9043 268.075 58.99 286.493C56.1147 297.606 45.295 319.018 25.0188 315.765C19.8437 314.864 7.83642 310.422 1.208 299.856L24.6387 242.706" stroke="#3192EA" stroke-width="1.33012"/>
</svg>
