<svg width="94" height="231" viewBox="0 0 94 231" fill="none" xmlns="http://www.w3.org/2000/svg">
<path d="M55.9394 222.687C47.693 228.563 28.8448 235.945 19.4235 218.461C10.0022 200.978 34.7575 179.613 48.3128 171.115C54.3425 169.362 66.5938 166.917 67.3616 171.166C68.3213 176.477 67.002 186.736 46.4977 190.339C33.4414 192.231 6.7246 190.8 4.3086 169.938C3.08974 160.851 7.58443 141.705 35.3141 137.815L70.1025 132.48M70.1025 132.48C82.0867 135.182 97.6161 145.402 63.8604 164.668C54.3174 166.491 31.6489 169.278 17.3196 165.843C9.63123 161.93 -3.75844 149.178 4.18966 129.475C4.98824 125.309 13.252 116.641 39.9184 115.295C45.8873 115.547 59.1844 116.314 64.6211 117.366L84.4984 119.66L70.1025 132.48ZM70.1025 132.48C61.7327 132.596 42.3682 131.417 31.8688 125.773C18.7444 118.719 12.4312 120.059 6.24288 98.6913C6.84306 88.7445 13.4164 69.785 34.9085 73.5223C56.4006 77.2596 68.9785 84.5044 72.5809 87.6597L67.9061 105.106M67.9061 105.106C53.0194 99.6012 19.9867 91.862 6.9499 104.945C-0.296306 114.796 -6.64487 137.185 25.9305 147.935C34.0181 149.765 51.3616 153.334 56.0344 152.969L64.1157 119.252C48.9326 113.668 18.0016 98.2033 15.7431 81.0215C14.7348 71.1491 18.6622 51.986 42.4382 54.3137C50.9705 56.263 69.7781 62.5491 76.7503 72.0992M67.9061 105.106L76.7503 72.0992M67.9061 105.106C58.9041 100.167 39.4238 87.9732 33.5187 78.7091C26.139 68.3087 17.4591 45.0937 41.7774 35.4375C48.7823 34.7875 66.2134 37.4366 79.8993 53.233M76.7503 72.0992L79.8993 53.233M76.7503 72.0992C68.1006 61.6953 51.2158 37.5622 52.8739 24.26C54.2386 16.2026 60.613 0.356926 75.1932 1.43351C78.9187 1.75792 87.7056 4.17975 93.049 11.2718L79.8993 53.233" stroke="#3192EA" stroke-width="1.33012"/>
</svg>
