<svg width="60" height="60" viewBox="0 0 60 60" fill="none" xmlns="http://www.w3.org/2000/svg">
<g clip-path="url(#clip0_35_1581)">
<g clip-path="url(#clip1_35_1581)">
<g clip-path="url(#clip2_35_1581)">
<mask id="mask0_35_1581" style="mask-type:luminance" maskUnits="userSpaceOnUse" x="0" y="0" width="60" height="60">
<path d="M60 0H0V60H60V0Z" fill="white"/>
</mask>
<g mask="url(#mask0_35_1581)">
<path d="M50.1537 18.4171C51.9843 20.2477 51.9843 23.2157 50.1537 25.0463L23.6039 51.5959C21.7734 53.4265 18.8054 53.4265 16.9748 51.5959L3.71669 38.3378C1.88611 36.5072 1.88611 33.5392 3.71669 31.7086L30.2664 5.15894C32.097 3.32836 35.0649 3.32836 36.8955 5.15894L43.5247 11.7881L52.9689 2.34387" stroke="#3192EA" stroke-width="3" stroke-miterlimit="10" stroke-linecap="round" stroke-linejoin="round"/>
<path d="M18.9633 31.0458C18.7631 32.4554 19.2051 33.9388 20.2894 35.0231C22.12 36.8537 25.088 36.8537 26.9186 35.0231C28.7492 33.1926 28.7492 30.2246 26.9186 28.394C25.088 26.5634 25.088 23.5954 26.9186 21.7648C28.7492 19.9342 31.7172 19.9342 33.5478 21.7648C34.6321 22.8491 35.0741 24.3325 34.8739 25.7421" stroke="#FBDE15" stroke-width="3" stroke-miterlimit="10" stroke-linecap="round" stroke-linejoin="round"/>
<path d="M16.9749 38.3378L20.2894 35.0232" stroke="#FBDE15" stroke-width="3" stroke-miterlimit="10" stroke-linecap="round" stroke-linejoin="round"/>
<path d="M33.5476 21.765L36.8621 18.4504" stroke="#FBDE15" stroke-width="3" stroke-miterlimit="10" stroke-linecap="round" stroke-linejoin="round"/>
<path d="M43.5938 57.6562L57.6562 43.5938" stroke="#FBDE15" stroke-width="3" stroke-miterlimit="10" stroke-linecap="round" stroke-linejoin="round"/>
</g>
</g>
</g>
</g>
<defs>
<clipPath id="clip0_35_1581">
<rect width="60" height="60" fill="white"/>
</clipPath>
<clipPath id="clip1_35_1581">
<rect width="60" height="60" fill="white"/>
</clipPath>
<clipPath id="clip2_35_1581">
<rect width="60" height="60" fill="white"/>
</clipPath>
</defs>
</svg>
