<svg width="60" height="60" viewBox="0 0 60 60" fill="none" xmlns="http://www.w3.org/2000/svg">
<path d="M32.2051 33.549C32.2051 32.5782 31.4181 31.7912 30.4473 31.7912H25.8537V30.1607C25.8537 29.3788 26.4898 28.7427 27.2717 28.7427C30.0842 28.7427 32.2052 26.5289 32.2052 23.5932C32.2052 20.8728 29.992 18.6598 27.2717 18.6598H24.0959C23.1251 18.6598 22.3381 19.4468 22.3381 20.4176C22.3381 21.3884 23.1251 22.1754 24.0959 22.1754H27.2717C28.0535 22.1754 28.6896 22.8115 28.6896 23.5932C28.6896 24.347 28.3183 25.2271 27.2717 25.2271C24.5513 25.2271 22.3381 27.4403 22.3381 30.1607V33.549C22.3381 34.5198 23.1251 35.3068 24.0959 35.3068H30.4473C31.4181 35.3068 32.2051 34.5198 32.2051 33.549ZM44.2569 33.549V20.4176C44.2569 19.4468 43.4699 18.6598 42.4991 18.6598C41.5283 18.6598 40.7413 19.4468 40.7413 20.4176V25.2272H38.0804L38.8006 20.6933C38.9528 19.7345 38.299 18.8338 37.3403 18.6816C36.3813 18.5291 35.4808 19.1831 35.3285 20.1418L34.2854 26.7093C34.2456 26.9603 34.2606 27.2169 34.3295 27.4616C34.3984 27.7062 34.5196 27.933 34.6846 28.1263C34.8496 28.3196 35.0546 28.4748 35.2854 28.5813C35.5162 28.6877 35.7673 28.7428 36.0215 28.7428H40.7413V33.549C40.7413 34.5198 41.5283 35.3068 42.4991 35.3068C43.4699 35.3068 44.2569 34.5198 44.2569 33.549ZM40.6427 52.2977C45.87 50.6605 50.5619 47.3307 53.8542 42.9217C57.2616 38.3586 59.0626 32.9282 59.0626 27.2175C59.0626 20.1977 56.3291 13.5983 51.3654 8.63472C46.4017 3.67113 39.8023 0.937378 32.7826 0.937378C27.0718 0.937378 21.6409 2.73843 17.0769 6.14578C12.6667 9.43828 9.33622 14.1302 7.69911 19.3574C7.40895 20.2839 7.9247 21.2701 8.85118 21.5603C9.77767 21.8505 10.7639 21.3347 11.0541 20.4082C14.0432 10.8649 22.7752 4.45312 32.7826 4.45312C45.335 4.45312 55.547 14.6652 55.547 27.2175C55.547 37.223 49.1351 45.9538 39.5919 48.9428C38.6656 49.2329 38.1497 50.2192 38.4399 51.1457C38.6753 51.8973 39.3688 52.3786 40.1168 52.3786C40.2908 52.3786 40.4679 52.3525 40.6427 52.2977Z" fill="#3192EA"/>
<path d="M31.4003 57.5931C31.2688 57.5931 31.1363 57.5871 31.0024 57.5753C23.5633 56.9203 16.5484 53.6416 11.25 48.3431C5.9513 43.0444 2.67251 36.0289 2.01778 28.5894C1.91067 27.3772 2.28895 26.2624 3.11196 25.3662C3.92559 24.4739 5.00302 24 6.22376 24H12.1069C14.1104 24 15.807 25.3684 16.233 27.3278L17.2838 32.2256C17.5865 33.633 17.182 35.0318 16.1738 36.0625L15.3758 36.8759C17.1926 39.8929 19.6982 42.3991 22.7144 44.2172L23.5257 43.4213C24.5645 42.4105 25.9636 42.0073 27.3687 42.3098L32.2577 43.3594C34.221 43.7793 35.5932 45.4765 35.5932 47.4864V53.3694C35.5932 54.5825 35.1196 55.6587 34.2236 56.4813C33.4204 57.2139 32.452 57.593 31.4003 57.5931ZM6.22376 27.5157C5.99782 27.5157 5.85251 27.5786 5.70556 27.7397C5.55122 27.9079 5.50024 28.0583 5.51993 28.2806C6.72884 42.0173 17.5759 52.8645 31.3121 54.0732H31.3135C31.5324 54.0929 31.6826 54.0407 31.8504 53.8876C32.0127 53.7387 32.0777 53.5922 32.0777 53.3694V47.4864C32.0777 47.1398 31.8592 46.8693 31.5211 46.797L26.63 45.747C26.3731 45.6916 26.1735 45.75 25.9824 45.936L24.2338 47.6515C23.9681 47.9122 23.6264 48.0818 23.2581 48.1359C22.8897 48.1899 22.5137 48.1257 22.1842 47.9523C17.664 45.5736 14.018 41.9265 11.6408 37.4053C11.4675 37.0759 11.4033 36.7 11.4574 36.3318C11.5115 35.9635 11.6811 35.622 11.9418 35.3563L13.6626 33.6022C13.8442 33.4166 13.9015 33.2191 13.8467 32.9639L12.7967 28.0699C12.7239 27.7351 12.4527 27.5157 12.107 27.5157H6.22376Z" fill="#FBDE15"/>
</svg>
