<svg width="60" height="60" viewBox="0 0 60 60" fill="none" xmlns="http://www.w3.org/2000/svg">
<g clip-path="url(#clip0_35_1598)">
<path d="M30 46.25L22.5 42.5L7.5 50V17.5L22.5 10L37.5 17.5L52.5 10V27.5" stroke="#3192EA" stroke-width="2.75" stroke-linecap="round" stroke-linejoin="round"/>
<path d="M22.5 10V42.5" stroke="#3192EA" stroke-width="2.75" stroke-linecap="round" stroke-linejoin="round"/>
<path d="M37.5 17.5V30" stroke="#3192EA" stroke-width="2.75" stroke-linecap="round" stroke-linejoin="round"/>
<path d="M52.8025 50.3025C53.8516 49.2537 54.5662 47.9173 54.8557 46.4624C55.1453 45.0075 54.9969 43.4994 54.4293 42.1288C53.8617 40.7582 52.9004 39.5868 51.667 38.7625C50.4336 37.9383 48.9835 37.4984 47.5 37.4984C46.0165 37.4984 44.5664 37.9383 43.333 38.7625C42.0996 39.5868 41.1383 40.7582 40.5707 42.1288C40.0031 43.4994 39.8547 45.0075 40.1443 46.4624C40.4339 47.9173 41.1484 49.2537 42.1975 50.3025C43.2425 51.35 45.01 52.915 47.5 55C50.1275 52.775 51.8975 51.21 52.8025 50.3025Z" stroke="#FBDE15" stroke-width="2.75" stroke-linecap="round" stroke-linejoin="round"/>
<path d="M47.5 45V45.025" stroke="#FBDE15" stroke-width="2.75" stroke-linecap="round" stroke-linejoin="round"/>
</g>
<defs>
<clipPath id="clip0_35_1598">
<rect width="60" height="60" fill="white"/>
</clipPath>
</defs>
</svg>
