<svg width="12" height="12" viewBox="0 0 12 12" fill="none" xmlns="http://www.w3.org/2000/svg">
<g clip-path="url(#clip0_30_1092)">
<path d="M9.17737 6.6L4.02168 11.76C3.86182 11.92 3.66864 12 3.44217 12C3.21569 12 3.01586 11.92 2.84267 11.76C2.66948 11.6 2.58289 11.4 2.58289 11.16C2.58289 10.92 2.67614 10.72 2.86265 10.56L7.41884 6L2.86265 1.44C2.67614 1.28 2.58289 1.08 2.58289 0.84C2.58289 0.6 2.66948 0.400001 2.84267 0.240001C3.01586 0.0799999 3.21569 0 3.44217 0C3.66864 0 3.86182 0.0799999 4.02168 0.240001L9.17737 5.4C9.36388 5.56 9.45714 5.76 9.45714 6C9.45714 6.24 9.36388 6.44 9.17737 6.6Z" fill="#3192EA"/>
</g>
<defs>
<clipPath id="clip0_30_1092">
<rect width="11.96" height="12" fill="white" transform="matrix(1 0 0 -1 0.0200195 12)"/>
</clipPath>
</defs>
</svg>
