<svg width="12" height="12" viewBox="0 0 12 12" fill="none" xmlns="http://www.w3.org/2000/svg">
<g clip-path="url(#clip0_30_1089)">
<path d="M2.56 6C2.56 5.76 2.65333 5.56 2.84 5.4L8 0.240001C8.16 0.0799999 8.35333 0 8.58 0C8.80666 0 9.00666 0.0799999 9.18 0.240001C9.35333 0.400001 9.44 0.6 9.44 0.84C9.44 1.08 9.34666 1.28 9.16 1.44L4.6 6L9.16 10.56C9.32 10.72 9.4 10.92 9.4 11.16C9.4 11.4 9.32 11.6 9.16 11.76C9 11.92 8.80666 12 8.58 12C8.35333 12 8.16 11.92 8 11.76L2.84 6.6C2.65333 6.44 2.56 6.24 2.56 6Z" fill="#3192EA"/>
</g>
<defs>
<clipPath id="clip0_30_1089">
<rect width="12" height="12" fill="white" transform="matrix(1 0 0 -1 0 12)"/>
</clipPath>
</defs>
</svg>
