<svg width="24" height="24" viewBox="0 0 24 24" fill="none" xmlns="http://www.w3.org/2000/svg">
<path d="M10.96 1.92C9.30665 1.92 7.79998 2.32 6.43998 3.12C5.07998 3.92 3.98665 5.01333 3.15998 6.4C2.33332 7.78667 1.91998 9.29333 1.91998 10.92C1.91998 12.5467 2.33332 14.0533 3.15998 15.44C3.98665 16.8267 5.07998 17.92 6.43998 18.72C7.79998 19.52 9.30665 19.92 10.96 19.92C11.9733 19.92 12.96 19.7467 13.92 19.4C14.88 19.0533 15.76 18.5867 16.56 18L20.32 21.68C20.48 21.8933 20.7066 22 21 22C21.2933 22 21.5333 21.9067 21.72 21.72C21.9066 21.5333 22 21.2933 22 21C22 20.7067 21.8933 20.48 21.68 20.32L18 16.56C18.5866 15.76 19.0533 14.88 19.4 13.92C19.7466 12.96 19.92 11.9733 19.92 10.96C19.92 9.30667 19.52 7.78667 18.72 6.4C17.92 5.01333 16.8266 3.92 15.44 3.12C14.0533 2.32 12.56 1.92 10.96 1.92ZM10.96 3.92C12.24 3.92 13.4133 4.24 14.48 4.88C15.5466 5.52 16.3866 6.37333 17 7.44C17.6133 8.50667 17.92 9.66667 17.92 10.92C17.92 12.1733 17.6133 13.3467 17 14.44C16.3866 15.5333 15.5466 16.3867 14.48 17C13.4133 17.6133 12.24 17.92 10.96 17.92C9.67998 17.92 8.50665 17.6133 7.43998 17C6.37332 16.3867 5.51998 15.5333 4.87998 14.44C4.23998 13.3467 3.91998 12.1733 3.91998 10.92C3.91998 9.66667 4.23998 8.50667 4.87998 7.44C5.51998 6.37333 6.37332 5.52 7.43998 4.88C8.50665 4.24 9.67998 3.92 10.96 3.92Z" fill="white"/>
</svg>
